# File created by Blade
# Date/Time:  Mon Nov 15 14:44:42 2010
#---------------------------------------------------------
:version 1.10
:name HOM
:units
  mass 1.0
  length 1.000000
  angle deg
:documentation
     Acclaim Skeleton File
:root
   axis xyz
   order TX TY TZ RX RY RZ
   position 0.000000 0.000000 0.000000
   orientation 0 0 0
:bonedata
   begin
      id 1
      name LeftUpLeg_dum
      direction 1.000000 0.000000 0.000000
      length 4.719518
      axis 0.0 0.0 0.0 xyz
   end
   begin
      id 2
      name RightUpLeg_dum
      direction -1.000000 0.000000 0.000000
      length 4.719518
      axis 0.0 0.0 0.0 xyz
   end
   begin
      id 3
      name Spine_dum
      direction 0.000000 1.000000 0.000000
      length 0.039370
      axis 0.0 0.0 0.0 xyz
   end
   begin
      id 4
      name LeftUpLeg
      direction 0.000000 -1.000000 0.000000
      length 19.141694
      axis 0.0 0.0 0.0 xyz
      dof rx ry rz
   end
   begin
      id 5
      name LeftLeg
      direction 0.000000 -1.000000 0.000000
      length 19.555040
      axis 0.0 0.0 0.0 xyz
      dof rx ry rz
   end
   begin
      id 6
      name LeftFoot
      direction 0.000000 -0.258819 0.965926
      length 6.929396
      axis 15.0 0.0 0.0 xyz
      dof rx ry rz
   end
   begin
      id 7
      name LeftToeBase
      direction 0.000000 0.000000 1.000000
      length 2.952750
      axis 0.0 0.0 0.0 xyz
      dof rx ry rz
   end
   begin
      id 8
      name RightUpLeg
      direction 0.000000 -1.000000 0.000000
      length 19.141694
      axis 0.0 0.0 0.0 xyz
      dof rx ry rz
   end
   begin
      id 9
      name RightLeg
      direction 0.000000 -1.000000 0.000000
      length 19.555040
      axis 0.0 0.0 0.0 xyz
      dof rx ry rz
   end
   begin
      id 10
      name RightFoot
      direction 0.000000 -0.258819 0.965926
      length 6.929396
      axis 15.0 0.0 0.0 xyz
      dof rx ry rz
   end
   begin
      id 11
      name RightToeBase
      direction 0.000000 0.000000 1.000000
      length 2.952750
      axis 0.0 0.0 0.0 xyz
      dof rx ry rz
   end
   begin
      id 12
      name Spine
      direction 0.000000 1.000000 0.000000
      length 11.965764
      axis 0.0 0.0 0.0 xyz
      dof rx ry rz
   end
   begin
      id 13
      name Spine1
      direction 0.000000 1.000000 0.000000
      length 0.000000
      axis 0.0 0.0 0.0 xyz
      dof rx ry rz
   end
   begin
      id 14
      name Spine1_dum1
      direction 0.000000 1.000000 0.000000
      length 9.788721
      axis 0.0 0.0 0.0 xyz
   end
   begin
      id 15
      name Spine1_dum2
      direction 0.000000 1.000000 0.000000
      length 9.788721
      axis 0.0 0.0 0.0 xyz
   end
   begin
      id 16
      name Spine1_dum3
      direction 0.000000 1.000000 0.000000
      length 9.788721
      axis 0.0 0.0 0.0 xyz
   end
   begin
      id 17
      name Neck
      direction 0.000000 1.000000 0.000000
      length 7.029632
      axis 0.0 0.0 0.0 xyz
      dof rx ry rz
   end
   begin
      id 18
      name Head
      direction 0.000000 1.000000 0.000000
      length 4.527550
      axis 0.0 0.0 0.0 xyz
      dof rx ry rz
   end
   begin
      id 19
      name LeftShoulder
      direction 1.000000 -0.000004 0.000000
      length 9.320257
      axis 0.0 0.0 -90.0 xyz
      dof rx ry rz
   end
   begin
      id 20
      name LeftArm
      direction 1.000000 -0.000004 0.000000
      length 12.801352
      axis 0.0 0.0 -90.0 xyz
      dof rx ry rz
   end
   begin
      id 21
      name LeftForeArm
      direction 1.000000 -0.000004 0.000000
      length 11.278127
      axis 0.0 0.0 -90.0 xyz
      dof rx ry rz
   end
   begin
      id 22
      name LeftHand
      direction 0.000000 0.000000 0.000000
      length 0.000000
      axis 0.0 0.0 -90.0 xyz
      dof rx ry rz
   end
   begin
      id 23
      name LeftHand_dum1
      direction 0.000000 0.000000 0.000000
      length 0.000000
      axis 0.0 0.0 -90.0 xyz
   end
   begin
      id 24
      name LeftHand_dum2
      direction 1.000000 -0.000004 0.000000
      length 3.937000
      axis 0.0 0.0 -90.0 xyz
   end
   begin
      id 25
      name LeftHandThumb
      direction 0.000000 0.000000 1.000000
      length 3.937000
      axis 0.0 0.0 -90.0 xyz
      dof rx ry rz
   end
   begin
      id 26
      name RightShoulder
      direction -1.000000 -0.000004 0.000000
      length 9.320257
      axis 0.0 0.0 90.0 xyz
      dof rx ry rz
   end
   begin
      id 27
      name RightArm
      direction -1.000000 -0.000004 0.000000
      length 12.801352
      axis 0.0 0.0 90.0 xyz
      dof rx ry rz
   end
   begin
      id 28
      name RightForeArm
      direction -1.000000 -0.000004 0.000000
      length 11.278127
      axis 0.0 0.0 90.0 xyz
      dof rx ry rz
   end
   begin
      id 29
      name RightHand
      direction 0.000000 0.000000 0.000000
      length 0.000000
      axis 0.0 0.0 90.0 xyz
      dof rx ry rz
   end
   begin
      id 30
      name RightHand_dum1
      direction 0.000000 0.000000 0.000000
      length 0.000000
      axis 0.0 0.0 90.0 xyz
   end
   begin
      id 31
      name RightHand_dum2
      direction -1.000000 -0.000004 0.000000
      length 5.393690
      axis 0.0 0.0 90.0 xyz
   end
   begin
      id 32
      name RightHandThumb
      direction 0.000000 0.000000 1.000000
      length 3.937000
      axis 0.0 0.0 90.0 xyz
      dof rx ry rz
   end
:hierarchy
   begin
      root LeftUpLeg_dum RightUpLeg_dum Spine_dum
      LeftUpLeg_dum LeftUpLeg
      RightUpLeg_dum RightUpLeg
      Spine_dum Spine
      LeftUpLeg LeftLeg
      LeftLeg LeftFoot
      LeftFoot LeftToeBase
      RightUpLeg RightLeg
      RightLeg RightFoot
      RightFoot RightToeBase
      Spine Spine1
      Spine1 Spine1_dum1 Spine1_dum2 Spine1_dum3
      Spine1_dum1 Neck
      Spine1_dum2 LeftShoulder
      Spine1_dum3 RightShoulder
      Neck Head
      LeftShoulder LeftArm
      LeftArm LeftForeArm
      LeftForeArm LeftHand
      LeftHand LeftHand_dum1 LeftHand_dum2
      LeftHand_dum1 LeftHandThumb
      RightShoulder RightArm
      RightArm RightForeArm
      RightForeArm RightHand
      RightHand RightHand_dum1 RightHand_dum2
      RightHand_dum1 RightHandThumb
   end

# File created by Blade
# Date/Time:  Mon Nov 15 14:56:25 2010
# Frame Rate: 200.000 fps
#------------------------------------------------------
:FULLY-SPECIFIED
:DEGREES
960
root  1.904096 41.497504 104.747496 -14.439814 2.282401 0.690628
LeftUpLeg  19.643532 11.409317 0.208952
LeftLeg  -6.564676 0.000000 -0.000000
LeftFoot  10.115730 2.893955 5.439861
LeftToeBase  -13.108773 0.000000 -0.000000
RightUpLeg  20.203481 -5.750137 -0.053564
RightLeg  -5.871884 0.000000 -0.000000
RightFoot  5.567147 -12.055240 -8.906882
RightToeBase  -23.617854 0.000000 -0.000000
Spine  13.773383 -1.975471 0.456481
Spine1  -0.489630 0.299452 -3.214690
Neck  10.937070 -1.813571 -2.590313
Head  -15.751819 -5.679155 3.481053
LeftShoulder  -13.910849 6.016832 17.935531
LeftArm  15.823684 -47.254919 -35.943055
LeftForeArm  8.830618 -0.000000 0.000000
LeftHand  -9.147774 12.303840 -8.668233
LeftHandThumb  0.000000 -0.000000 0.000000
RightShoulder  -15.885407 -11.534759 -18.314046
RightArm  10.826348 30.243778 38.182998
RightForeArm  16.774132 -0.000000 0.000000
RightHand  -3.856020 -1.605243 16.971989
RightHandThumb  0.000000 -0.000000 0.000000
961
root  1.901356 41.496783 104.756449 -14.425109 2.253703 0.694078
LeftUpLeg  19.651436 11.511858 0.241644
LeftLeg  -6.567163 0.000000 -0.000000
LeftFoot  10.097537 2.810811 5.437256
LeftToeBase  -13.146228 0.000000 -0.000000
RightUpLeg  20.216586 -5.772983 -0.060572
RightLeg  -5.901644 0.000000 -0.000000
RightFoot  5.561502 -12.003059 -8.940268
RightToeBase  -23.513430 0.000000 -0.000000
Spine  13.773886 -1.968525 0.445602
Spine1  -0.494455 0.301252 -3.210050
Neck  10.991229 -1.805152 -2.592507
Head  -15.778601 -5.659764 3.488721
LeftShoulder  -13.926097 6.012441 17.923103
LeftArm  15.728616 -47.308747 -35.841121
LeftForeArm  8.861422 -0.000000 0.000000
LeftHand  -9.139056 12.213260 -8.549438
LeftHandThumb  0.000000 -0.000000 0.000000
RightShoulder  -15.894330 -11.515776 -18.298363
RightArm  10.796699 30.281946 38.165673
RightForeArm  16.810192 -0.000000 0.000000
RightHand  -3.849840 -1.617202 17.034026
RightHandThumb  0.000000 -0.000000 0.000000
962
root  1.898965 41.495567 104.764560 -14.406999 2.226426 0.695415
LeftUpLeg  19.666684 11.455995 0.225588
LeftLeg  -6.615046 0.000000 -0.000000
LeftFoot  10.117102 2.892199 5.419877
LeftToeBase  -13.125836 0.000000 -0.000000
RightUpLeg  20.228206 -5.782780 -0.060877
RightLeg  -5.941196 0.000000 -0.000000
RightFoot  5.565991 -11.968320 -8.963783
RightToeBase  -23.516759 0.000000 -0.000000
Spine  13.773907 -1.960663 0.437047
Spine1  -0.506848 0.304575 -3.202211
Neck  11.051192 -1.803125 -2.599182
Head  -15.800521 -5.649615 3.491859
LeftShoulder  -13.938620 6.015532 17.908288
LeftArm  15.639119 -47.340751 -35.760327
LeftForeArm  8.913319 -0.000000 0.000000
LeftHand  -9.050032 12.101017 -8.449144
LeftHandThumb  0.000000 -0.000000 0.000000
RightShoulder  -15.894796 -11.511979 -18.280454
RightArm  10.763167 30.304501 38.149024
RightForeArm  16.848910 -0.000000 0.000000
RightHand  -3.842185 -1.628596 17.063455
RightHandThumb  0.000000 -0.000000 0.000000
963
root  1.896831 41.494366 104.772500 -14.388891 2.199149 0.696744
LeftUpLeg  19.681945 11.400136 0.209519
LeftLeg  -6.662930 0.000000 -0.000000
LeftFoot  10.136644 2.973592 5.402525
LeftToeBase  -13.105445 0.000000 -0.000000
RightUpLeg  20.239826 -5.792578 -0.061184
RightLeg  -5.980749 0.000000 -0.000000
RightFoot  5.570465 -11.933580 -8.987293
RightToeBase  -23.520088 0.000000 -0.000000
Spine  13.773928 -1.952801 0.428491
Spine1  -0.519241 0.307899 -3.194373
Neck  11.111155 -1.801090 -2.605855
Head  -15.822440 -5.639465 3.494994
LeftShoulder  -13.951145 6.018619 17.893471
LeftArm  15.549501 -47.372669 -35.679409
LeftForeArm  8.965216 -0.000000 0.000000
LeftHand  -8.961245 11.988622 -8.349070
LeftHandThumb  0.000000 -0.000000 0.000000
RightShoulder  -15.895261 -11.508180 -18.262545
RightArm  10.729619 30.327048 38.132355
RightForeArm  16.887627 -0.000000 0.000000
RightHand  -3.834537 -1.639994 17.092883
RightHandThumb  0.000000 -0.000000 0.000000
964
root  1.895001 41.493700 104.780911 -14.372556 2.170168 0.701840
LeftUpLeg  19.687810 11.472849 0.229721
LeftLeg  -6.668137 0.000000 -0.000000
LeftFoot  10.120289 2.921633 5.402513
LeftToeBase  -13.075768 0.000000 -0.000000
RightUpLeg  20.254848 -5.816048 -0.070628
RightLeg  -6.021010 0.000000 -0.000000
RightFoot  5.570313 -11.879860 -9.002450
RightToeBase  -23.487771 0.000000 -0.000000
Spine  13.772251 -1.942061 0.419175
Spine1  -0.531173 0.313695 -3.187927
Neck  11.170737 -1.801980 -2.611343
Head  -15.835749 -5.631209 3.495290
LeftShoulder  -13.963105 6.010488 17.871215
LeftArm  15.480500 -47.402908 -35.617993
LeftForeArm  9.018514 -0.000000 0.000000
LeftHand  -8.889188 11.922757 -8.285623
LeftHandThumb  0.000000 -0.000000 0.000000
RightShoulder  -15.893605 -11.507781 -18.238723
RightArm  10.698312 30.379448 38.127932
RightForeArm  16.947165 -0.000000 0.000000
RightHand  -3.936539 -1.674603 17.137913
RightHandThumb  0.000000 -0.000000 0.000000
965
root  1.893353 41.493010 104.789340 -14.356224 2.141187 0.706928
LeftUpLeg  19.693702 11.545560 0.249936
LeftLeg  -6.673343 0.000000 -0.000000
LeftFoot  10.103935 2.869673 5.402517
LeftToeBase  -13.046092 0.000000 -0.000000
RightUpLeg  20.269874 -5.839515 -0.080078
RightLeg  -6.061272 0.000000 -0.000000
RightFoot  5.570146 -11.826140 -9.017604
RightToeBase  -23.455453 0.000000 -0.000000
Spine  13.770573 -1.931320 0.409859
Spine1  -0.543103 0.319491 -3.181482
Neck  11.230319 -1.802865 -2.616832
Head  -15.849058 -5.622953 3.495585
LeftShoulder  -13.975061 6.002353 17.848962
LeftArm  15.411412 -47.433096 -35.556488
LeftForeArm  9.071812 -0.000000 0.000000
LeftHand  -8.817222 11.856813 -8.222275
LeftHandThumb  0.000000 -0.000000 0.000000
RightShoulder  -15.891948 -11.507382 -18.214900
RightArm  10.666984 30.431846 38.123474
RightForeArm  17.006703 -0.000000 0.000000
RightHand  -4.038571 -1.709132 17.183005
RightHandThumb  0.000000 -0.000000 0.000000
966
root  1.891806 41.491730 104.797568 -14.338255 2.115830 0.710118
LeftUpLeg  19.705253 11.503293 0.236579
LeftLeg  -6.713305 0.000000 -0.000000
LeftFoot  10.127772 2.929873 5.367881
LeftToeBase  -13.071275 0.000000 -0.000000
RightUpLeg  20.279364 -5.858909 -0.085982
RightLeg  -6.095198 0.000000 -0.000000
RightFoot  5.569591 -11.784319 -9.048158
RightToeBase  -23.435135 0.000000 -0.000000
Spine  13.766251 -1.919781 0.403309
Spine1  -0.555038 0.327196 -3.175046
Neck  11.276498 -1.818988 -2.610479
Head  -15.844060 -5.608112 3.470616
LeftShoulder  -13.983465 6.005928 17.825736
LeftArm  15.359978 -47.434703 -35.517929
LeftForeArm  9.134470 -0.000000 0.000000
LeftHand  -8.740512 11.772031 -8.173433
LeftHandThumb  0.000000 -0.000000 0.000000
RightShoulder  -15.885275 -11.515902 -18.196635
RightArm  10.650434 30.480860 38.132991
RightForeArm  17.029157 -0.000000 0.000000
RightHand  -4.097568 -1.722105 17.260415
RightHandThumb  0.000000 -0.000000 0.000000
967
root  1.890297 41.490406 104.805536 -14.320289 2.090473 0.713299
LeftUpLeg  19.716812 11.461029 0.223216
LeftLeg  -6.753267 0.000000 -0.000000
LeftFoot  10.151574 2.990088 5.333268
LeftToeBase  -13.096458 0.000000 -0.000000
RightUpLeg  20.288856 -5.878302 -0.091890
RightLeg  -6.129124 0.000000 -0.000000
RightFoot  5.569013 -11.742499 -9.078708
RightToeBase  -23.414816 0.000000 -0.000000
Spine  13.761927 -1.908242 0.396758
Spine1  -0.566971 0.334903 -3.168611
Neck  11.322676 -1.835117 -2.604138
Head  -15.839069 -5.593270 3.445650
LeftShoulder  -13.991871 6.009499 17.802510
LeftArm  15.308541 -47.436287 -35.479367
LeftForeArm  9.197129 -0.000000 0.000000
LeftHand  -8.663899 11.687185 -8.124721
LeftHandThumb  0.000000 -0.000000 0.000000
RightShoulder  -15.878604 -11.524423 -18.178371
RightArm  10.633885 30.529876 38.142496
RightForeArm  17.051610 -0.000000 0.000000
RightHand  -4.156584 -1.734998 17.337838
RightHandThumb  0.000000 -0.000000 0.000000
968
root  1.888631 41.489587 104.812962 -14.304562 2.066950 0.719080
LeftUpLeg  19.718050 11.480177 0.226115
LeftLeg  -6.759296 0.000000 -0.000000
LeftFoot  10.142915 2.984139 5.326423
LeftToeBase  -13.083216 0.000000 -0.000000
RightUpLeg  20.299972 -5.900440 -0.101105
RightLeg  -6.163202 0.000000 -0.000000
RightFoot  5.569455 -11.700120 -9.091801
RightToeBase  -23.389156 0.000000 -0.000000
Spine  13.756470 -1.896882 0.389349
Spine1  -0.575189 0.342238 -3.164967
Neck  11.393049 -1.825721 -2.618856
Head  -15.877072 -5.594039 3.469143
LeftShoulder  -13.997627 6.003546 17.776670
LeftArm  15.276693 -47.432981 -35.462142
LeftForeArm  9.257885 -0.000000 0.000000
LeftHand  -8.624759 11.639432 -8.086363
LeftHandThumb  0.000000 -0.000000 0.000000
RightShoulder  -15.876464 -11.521204 -18.160196
RightArm  10.619605 30.556349 38.161728
RightForeArm  17.078842 -0.000000 0.000000
RightHand  -4.189107 -1.727687 17.392026
RightHandThumb  0.000000 -0.000000 0.000000
969
root  1.887121 41.488704 104.820300 -14.288838 2.043426 0.724854
LeftUpLeg  19.719290 11.499324 0.229016
LeftLeg  -6.765324 0.000000 -0.000000
LeftFoot  10.134258 2.978190 5.319579
LeftToeBase  -13.069973 0.000000 -0.000000
RightUpLeg  20.311091 -5.922577 -0.110325
RightLeg  -6.197280 0.000000 -0.000000
RightFoot  5.569886 -11.657740 -9.104892
RightToeBase  -23.363496 0.000000 -0.000000
Spine  13.751012 -1.885522 0.381939
Spine1  -0.583407 0.349573 -3.161323
Neck  11.463418 -1.816306 -2.633562
Head  -15.915076 -5.594793 3.492638
LeftShoulder  -14.003382 5.997589 17.750830
LeftArm  15.244849 -47.429669 -35.444921
LeftForeArm  9.318642 -0.000000 0.000000
LeftHand  -8.585659 11.591654 -8.048044
LeftHandThumb  0.000000 -0.000000 0.000000
RightShoulder  -15.874323 -11.517985 -18.142020
RightArm  10.605332 30.582826 38.180958
RightForeArm  17.106074 -0.000000 0.000000
RightHand  -4.221622 -1.720346 17.446211
RightHandThumb  0.000000 -0.000000 0.000000
